<svg id="Layer_1" data-name="Layer 1" xmlns="http://www.w3.org/2000/svg" viewBox="0 0 47.65 47.92"><title>flower</title><path d="M-135-144.05a.36.36,0,0,1,.56-.06c.75-.64,2.83.38,2.3-1.85A4.1,4.1,0,0,1-135-148c-.44-7.55,4.36-12.22,11.47-11.15,3,3.1,2.56-1.11,3.76-1.82,8.3-2.83,14,.46,13.71,7.88l-.05.09c-.16,2.76,2.45.78,3.25,1.91l0-.07c5.38,6.2,4.21,14.33-2.4,16.71-1.88,6.38-6,9.83-12.79,9.59-2.31-.08-4.78-.17-5.07-3.39.46-2.74-1-2.47-2.69-1.68-3.95,1.4-6.37-.92-8-3.84C-135.61-136.91-138.35-140.24-135-144.05Z" transform="translate(142.96 167.9)" fill="#f5163c"/><path d="M-135-144.05c1.09,6,2.71,11.6,9.15,14.11-3,2.39-6.46,2.42-9.89,1.59-4.09-1-7.61-2.91-7.18-8C-142.52-141.07-140-143.93-135-144.05Z" transform="translate(142.96 167.9)" fill="#f21238"/><path d="M-123.16-128.26c6.75,2.86,12.8.53,17.09-6.58l0,.15c.41,1.92,1,3.81,1.22,5.75.64,5.06-2.12,8.55-6.9,8.91C-118.32-119.53-123.09-123-123.16-128.26Z" transform="translate(142.96 167.9)" fill="#f11238"/><path d="M-106.05-153.11c-2.17-6.8-8.51-6.35-13.71-7.88a4.23,4.23,0,0,1,.33-.92c3.33-5.2,7.63-7.26,10.8-5.2C-104.55-164.46-103.33-157.83-106.05-153.11Z" transform="translate(142.96 167.9)" fill="#f01137"/><path d="M-106.09-134.69l0-.15c3.91-1.42,3.94-4.89,4-8.11a69.86,69.86,0,0,0-.81-8.23c4.17.36,8.81,2.48,7.3,6.45-1.23,3.23-.2,7.3-2.93,9.67C-100.64-133.21-103.51-133.73-106.09-134.69Z" transform="translate(142.96 167.9)" fill="#f01238"/><path d="M-123.52-159.16c-6,1.44-8.62,6.43-11.47,11.15-3.67-3.91-3.71-7.52-.12-11.5C-131.93-163.05-128.43-162.94-123.52-159.16Z" transform="translate(142.96 167.9)" fill="#f01238"/><path d="M-102.86-151.11c-1.29-.29-3.57,1.13-3.25-1.91C-105.66-151.29-103.7-152.16-102.86-151.11Z" transform="translate(142.96 167.9)" fill="#f01238"/><path d="M-132.14-146c.51.33,1.28.74.78,1.38-.79,1-2,.42-3.07.48C-133.73-144.8-132.28-144.57-132.14-146Z" transform="translate(142.96 167.9)" fill="#f21238"/><path d="M-110.27-146.38c-1.82,2.59,5.27,8.13-1.92,8.5-2.68.14-6.25,4.88-8.49.19-1.34-2.81-5.53-2.2-5.68-5.65-.08-1.91,6-9,7.47-8.89C-110.78-151.81-110.24-151.46-110.27-146.38Z" transform="translate(142.96 167.9)" fill="#dd0d27"/><path d="M-115-142.11c-1,.26-1.93,1.51-3,.15-1.19-1.75-1.12-3.19,1-4.09,2.29-.23,3.25.57,2.23,2.89Q-114.25-142.47-115-142.11Z" transform="translate(142.96 167.9)" fill="#f6929a"/><path d="M-117-146l-1,4.09-2.11-1.07q-.52-.31-.37-.65t.32-.35C-119.85-145.87-119.41-147.54-117-146Z" transform="translate(142.96 167.9)" fill="#ea626f"/><path d="M-115-142.11l.27-1c1.12.55,2.56.77,2.7,2.48C-113.48-140.35-114-141.78-115-142.11Z" transform="translate(142.96 167.9)" fill="#a80b17"/><path d="M-120.19-144l0,1h-3.25l-.07-.65Z" transform="translate(142.96 167.9)" fill="#950b13"/></svg>